<svg xmlns="http://www.w3.org/2000/svg" viewBox="0 0 200 200"><path fill="#fff" d="M112.69 163.86H41.45c-5.45 0-9.48-4.38-9.6-10.43-.15-7.32 1.07-13.54 3.72-19 5.5-11.33 14.21-18.09 25.89-20.07a31.6 31.6 0 0 1 4.39-.33 2.72 2.72 0 0 1 2 .73 2.94 2.94 0 0 1 .81 2.15 2.83 2.83 0 0 1-.81 2.07 3.47 3.47 0 0 1-2.4.77A23.46 23.46 0 0 0 55.36 122c-10.23 4.8-16.29 13.26-18 25.15a38.22 38.22 0 0 0-.21 6.42v.61a4.12 4.12 0 0 0 4.05 4H107.22a38.52 38.52 0 0 0 5.47 5.68zM56.25 84.1A40.45 40.45 0 0 1 63.5 48a31.07 31.07 0 0 1 14.44-10.22 29.16 29.16 0 0 1 26.91 4c6.36 4.44 10.77 10.53 13.48 18.63a39.21 39.21 0 0 1 1.9 15.12 38 38 0 0 1-9 22.94 30.6 30.6 0 0 1-15.85 10.32 32.32 32.32 0 0 1-8.14 1.08 29.12 29.12 0 0 1-17.65-6.07 35.54 35.54 0 0 1-13.34-19.7zm4.11-12.3A37.29 37.29 0 0 0 63 86.68a30.47 30.47 0 0 0 10.25 13.37 23.83 23.83 0 0 0 14.23 4.7 24.17 24.17 0 0 0 12.73-3.65 28.48 28.48 0 0 0 9.63-10A35.71 35.71 0 0 0 113 62.27a30.21 30.21 0 0 0-11-16.09 23.41 23.41 0 0 0-14.24-4.94 25.4 25.4 0 0 0-6.2.79 25.14 25.14 0 0 0-13.78 9.21 33.37 33.37 0 0 0-7.42 20.56zm107.81 62.6a30.54 30.54 0 1 1-30.53-30.53 30.53 30.53 0 0 1 30.53 30.53zm-11.66 11.38c0-1.44-.63-2.6-1.42-2.6h-32.75c-.79 0-1.43 1.16-1.43 2.6s.64 2.6 1.43 2.6h32.75c.79 0 1.42-1.16 1.42-2.6zm0-11.9c0-1.42-.63-2.57-1.42-2.57h-32.75c-.79 0-1.43 1.15-1.43 2.57s.64 2.57 1.43 2.57h32.75c.79 0 1.42-1.15 1.42-2.57zm0-11.81c0-1.45-.63-2.63-1.42-2.63h-32.75c-.79 0-1.43 1.18-1.43 2.63s.64 2.64 1.43 2.64h32.75c.79 0 1.42-1.18 1.42-2.64z"/></svg>