<svg xmlns="http://www.w3.org/2000/svg" viewBox="0 0 200 200"><defs><style>.a{fill:#fff;}</style></defs><path class="a" d="M86,64.79l1.89,0V92.69H41.33l2.07-2.91a15.13,15.13,0,0,0,1.37-2.67c.2-.46.4-.91.62-1.37l.22-.43C51,76,57.83,70.16,66,67.73a81.38,81.38,0,0,1,13.76-2.54C81.84,65,83.93,64.85,86,64.79Zm45.54,11.44a31.15,31.15,0,0,0-7.05-6.13,37,37,0,0,0-7.23-2.63l-.9-.26a101.34,101.34,0,0,0-19.7-2.39l-1.86,0V92.66h53Zm-4.7,55c-7.49,0-12.25,0-15.14.09h-.87v-.11l-39.69.06a20.84,20.84,0,0,1,.37,3.28,22.47,22.47,0,0,1-.37,4.2h55.79a22,22,0,0,1-.42-3.83A21.66,21.66,0,0,1,126.85,131.2Zm66.5-4.69a72.71,72.71,0,0,1-3.76-22c0-4.12-2.3-7.7-6.79-10.62-4.78-3.45-10.47-5.22-15.91-6.61-1.39-.33-2.79-.59-4.18-.84s-2.6-.46-3.6-.69a2.19,2.19,0,0,1-1.08-.64l-17.8-18.34a40.26,40.26,0,0,0-9.17-8.13,48.22,48.22,0,0,0-9.45-3.51l-1.1-.32a125.13,125.13,0,0,0-40-2.65A130.21,130.21,0,0,0,60.59,55.5C49,58.65,39.22,66.16,31.57,77.83a2.68,2.68,0,0,0-.89,1.33c-.32.63-.63,1.29-.95,2a13.72,13.72,0,0,1-2.08,3.69,17.41,17.41,0,0,1-3.36,1.87,24.08,24.08,0,0,0-2.86,1.47A23.72,23.72,0,0,0,15.66,93c-1.74,1.88-5.14,8.47-5.14,12a10.64,10.64,0,0,1-1.7,6.34,16,16,0,0,0-2.37,9c0,7.95,10.91,17.5,17.76,17.5h4a21.57,21.57,0,0,1-.31-2.81,21.73,21.73,0,0,1,.22-2.56H24.21c-4.06,0-12.39-7.49-12.39-12.13a10.7,10.7,0,0,1,1.69-6.34,15.85,15.85,0,0,0,2.38-9c0-1.8,2.58-7.09,3.71-8.33a18.58,18.58,0,0,1,4.53-3.75,23,23,0,0,1,2.45-1.25A22.08,22.08,0,0,0,31.1,89a16.83,16.83,0,0,0,3.56-5.67c.21-.46.41-.92.56-1.24l.52-.78c7-11,15.63-17.72,26.23-20.6a124.14,124.14,0,0,1,19-3.17A119.27,119.27,0,0,1,119.15,60l.95.28a44,44,0,0,1,8.21,3,35.44,35.44,0,0,1,7.91,7.08l17.9,18.46a7.7,7.7,0,0,0,3.44,2.09c1.4.33,2.8.59,4.19.84s2.59.47,3.85.77c4.57,1.17,9.81,2.68,14.15,5.82,3.13,2,4.46,3.9,4.46,6.28a77.16,77.16,0,0,0,4,23.27.81.81,0,0,1-.12.27c-.95,1.63-4.37,3.65-6.22,4.19-1.39-.05-5.43-.08-12-.1.08.76.24,1.5.25,2.28a22.65,22.65,0,0,1-.28,3.2h1.5l1-.09c3.31,0,9.07,0,9.57.08l.4,0,.4-.09c2.83-.62,8-3.39,10-6.79A5.36,5.36,0,0,0,193.35,126.51Zm-45,21.9h.12a13.7,13.7,0,0,0-.15-27.39h-.12a13.7,13.7,0,0,0,.15,27.39Zm-98.61,0h.12A13.7,13.7,0,0,0,49.7,121h-.12a13.7,13.7,0,0,0,.15,27.39Z"/></svg>