<svg xmlns="http://www.w3.org/2000/svg" viewBox="0 0 200 200"><path fill="#fff" d="M106.32 80.68a7.32 7.32 0 0 1-5.13-2.09 7.24 7.24 0 0 1-2.12-5V52l27.74 28.67h-20.49zm25.16 70.88A1.47 1.47 0 0 1 130 153H49.68a1.47 1.47 0 0 1-1.46-1.46V48.44A1.46 1.46 0 0 1 49.68 47h54.68l27.12 28.58v12.17l5.46-5.46V74l-30.89-32.48H49.68a6.92 6.92 0 0 0-6.92 6.92v103.12a6.92 6.92 0 0 0 6.92 6.92H130a6.92 6.92 0 0 0 6.92-6.92v-28l-5.46 5.47zm-25.75-28.14l11.75 11.69 29.87-29.84c-3.91-3.92-7.85-7.87-11.73-11.78zm50.41-33.07c-1.86-2-3.76-3.88-5.74-5.72a5.07 5.07 0 0 0-6.91.06c-.72.65-1.39 1.36-2.08 2l-3.15 3.15 11.83 11.86c2-2 4.11-4 6.06-6a3.81 3.81 0 0 0-.01-5.35zm-55.92 51.39l14.29-3.74-11.63-11.63-3.78 14.25a.92.92 0 0 0 1.12 1.12z"/></svg>