<svg xmlns="http://www.w3.org/2000/svg" viewBox="0 0 200 200"><defs><style>.a{fill:#fff;}</style></defs><path class="a" d="M109.22,52,137,80.68H116.47a7.32,7.32,0,0,1-5.13-2.09,7.24,7.24,0,0,1-2.12-5V52ZM147.09,74v77.61a6.92,6.92,0,0,1-6.92,6.92H59.83a6.92,6.92,0,0,1-6.92-6.92V48.44a6.92,6.92,0,0,1,6.92-6.92H116.2Zm-5.46,1.61L114.51,47H59.83a1.46,1.46,0,0,0-1.46,1.46V151.56A1.47,1.47,0,0,0,59.83,153h80.34a1.47,1.47,0,0,0,1.46-1.46ZM99.4,96.25a6.08,6.08,0,0,1,5,2.14l.71.71,5.52-5.45-.72-.72A13.62,13.62,0,0,0,99.4,88.72c-8.54,0-14.51,5.8-14.51,14.11v4.43H81.38v6.45h3.51v17.75h25.34v-7.53H93.1V113.71h7.32v-6.45H93.1v-4C93.1,98.68,95.28,96.25,99.4,96.25Z"/></svg>