<svg xmlns="http://www.w3.org/2000/svg" viewBox="0 0 200 200"><defs><style>.a{fill:#fff;}</style></defs><path class="a" d="M157.64,124.54c-.27-1.17-.64-1.45-1.85-1.34-1.93.16-3.85.32-5.78.5a.81.81,0,0,1-.78-.33c-.86-1-1.74-2-2.66-2.88a.91.91,0,0,1-.29-.92c.34-1.94.63-3.9.95-5.85a1.54,1.54,0,0,0-.83-1.66l-9.67-3c-.95,0-1.42.47-1.78,1.3-.76,1.76-1.61,3.48-2.45,5.21a.77.77,0,0,1-.47.32c-1.37.34-2.74.67-4.11,1a.88.88,0,0,1-.66-.16c-1.56-1.24-3.1-2.51-4.65-3.76a1.33,1.33,0,0,0-2.07.06c-2.32,2.16-4.65,4.32-7,6.49a1.3,1.3,0,0,0-.22,2c1.1,1.58,2.18,3.17,3.31,4.73a1.13,1.13,0,0,1,.13,1.17q-.6,1.7-1,3.42a1.06,1.06,0,0,1-.72.87c-1.81.66-3.6,1.37-5.39,2.06-1,.39-1.26.83-1,1.91l2.1,9.16c.24,1,.67,1.34,1.71,1.26,2-.17,3.93-.33,5.9-.52a.78.78,0,0,1,.78.33c.86,1,1.75,2,2.66,2.89a.84.84,0,0,1,.3.85c-.34,1.95-.63,3.9-.94,5.85a1.34,1.34,0,0,0,1.08,1.73q4.57,1.42,9.17,2.82a1.35,1.35,0,0,0,1.86-.84c.86-1.83,1.7-3.66,2.57-5.48a.87.87,0,0,1,.5-.37c1.36-.34,2.73-.67,4.11-1a.89.89,0,0,1,.65.17c1.56,1.24,3.1,2.51,4.66,3.76a1.32,1.32,0,0,0,2.06-.06l7-6.49c.18-.17.35-.36.53-.54,0-.11.07-.22.1-.34a7.9,7.9,0,0,0-.57-1.37c-1.05-1.56-2.13-3.1-3.22-4.63a1,1,0,0,1-.11-1c.4-1.19.77-2.38,1.11-3.59a1,1,0,0,1,.65-.78c1.75-.65,3.49-1.31,5.22-2a10.25,10.25,0,0,0,1.24-.72c.06-.19.11-.38.17-.56ZM142.56,137.2a8.76,8.76,0,1,1-5.77-10.94A8.73,8.73,0,0,1,142.56,137.2Zm-23.78-32.07,1.63-.1,1.84-1.82,4.29-16.1c.83-3.08-.11-5-3.05-6.26l-2-.84q-3-1.31-6.06-2.57c-.41-1.75-.87-3.5-1.36-5.33,1.06-1.36,2.1-2.74,3.13-4.12l2.28-3a4.92,4.92,0,0,0,.25-5.77l-12.28-12.3c-2.08-1.27-4.22-1-6.38.69S96.7,51,94.69,52.41l-.2.15L93,52.18c-1.28-.32-2.52-.64-3.71-.92q-1.08-2.5-2.14-5L85.72,43c-1.13-2.65-3.18-3.67-6-2.91L65.11,44c-2.8.76-4,2.6-3.69,5.49L61.71,52c.26,2.11.51,4.23.79,6.33-1.23,1.13-2.5,2.41-3.88,3.89-2-.27-4-.51-5.94-.75l-2.84-.34c-3-.38-4.82.88-5.6,3.8L40.36,79.4c-.77,2.85.22,4.88,2.92,6l2.16.92c2,.86,4,1.73,6,2.55.41,1.74.87,3.47,1.4,5.27-1.49,1.93-3,3.88-4.4,5.83l-1,1.34a4.68,4.68,0,0,0,.46,6.56q5.4,5.41,10.83,10.82a4.66,4.66,0,0,0,6.55.43L68.12,117c1.49-1.12,3-2.23,4.25-3.27l2.31.58,3,.75q1.2,2.77,2.38,5.58l1.16,2.72a4.51,4.51,0,0,0,4.28,3.14,6.22,6.22,0,0,0,1.66-.24l14.67-3.94c.29-.07.57-.17,1.26-.39l2-1.61.19-1.6a8.21,8.21,0,0,0,.13-2.23c-.12-1.18-.25-2.37-.38-3.57-.19-1.66-.38-3.33-.53-5,1.41-1.35,2.59-2.54,3.75-3.77q4.21.57,8.47,1A10.33,10.33,0,0,0,118.78,105.13Zm-14-4.7c-1.33,1.42-2.72,2.8-4.13,4.15a4,4,0,0,0-1.35,3.6c.4,2.95.77,5.9,1.07,8.86a2.52,2.52,0,0,1,0,.45l-14.52,3.9-1.14-2.7c-.86-2-1.72-4.06-2.61-6.1a3.92,3.92,0,0,0-2.43-2.14c-2.19-.62-4.39-1.19-6.6-1.73a3.91,3.91,0,0,0-.91-.11,3.55,3.55,0,0,0-2.17.69c-1.56,1.14-3.1,2.3-4.64,3.46l-3.08,2.32q-5.38-5.35-10.74-10.74l1-1.31c1.55-2.06,3.09-4.12,4.67-6.16a3.84,3.84,0,0,0,.65-3.67q-.85-3-1.55-6a3.8,3.8,0,0,0-2.36-2.8q-3.27-1.36-6.52-2.76l-2.16-.92h0v-.05l3.88-14.47,0-.1h.07l2.35.29c2.25.26,4.5.53,6.74.84a4.38,4.38,0,0,0,3.87-1.47c1.37-1.48,2.64-2.75,3.88-3.89a4.27,4.27,0,0,0,1.5-4c-.32-2.36-.61-4.73-.89-7.1l-.23-2L81.07,45l.9,2.14c.94,2.22,1.88,4.44,2.85,6.66a3.93,3.93,0,0,0,2.43,2.14c2.19.61,4.38,1.18,6.6,1.74a3.79,3.79,0,0,0,3-.52l.82-.61c2.19-1.59,4.44-3.24,6.59-5a5.22,5.22,0,0,1,.46-.32l10.73,10.72-2.06,2.74c-1.19,1.58-2.38,3.17-3.61,4.74a4,4,0,0,0-.69,3.77c.56,1.89,1.08,3.88,1.55,5.9A3.78,3.78,0,0,0,113,81.91c2.6,1.07,5.18,2.18,7.77,3.28l.73.32.2.08c0,.06,0,.13,0,.21l-3.83,14.33a3.09,3.09,0,0,1-.53,0c-2.92-.31-5.85-.68-8.76-1.07A4,4,0,0,0,104.82,100.43ZM59.21,63.05h0l-.34.21.06-.47Zm24.45,2.54A17.2,17.2,0,0,0,71.15,70.7a17.47,17.47,0,1,0,12.51-5.11ZM93,92.66a13.76,13.76,0,0,1-19.07,0,13.44,13.44,0,0,1,0-19.07,13.08,13.08,0,0,1,9.07-3.94h.53a13.49,13.49,0,0,1,9.43,23Z"/></svg>