<svg xmlns="http://www.w3.org/2000/svg" viewBox="0 0 200 200"><path fill="#fff" d="M172.4 150.4c-1.4-1.4-6.6-7.4-10.4-15l-.8-1.6 1.3-1.3c7.1-7 10.8-15.3 10.8-24.1 0-19.3-19-36.1-44.2-39.1l-1.3-.2-.6-1.1c-8.2-14.9-27.1-24.5-48.3-24.5-28.8 0-52.3 17.8-52.3 39.7 0 8.7 3.8 17.1 10.9 24.1l1.3 1.3-.8 1.6c-4.2 8.5-10.4 15.1-10.4 15.2-.9 1-1.2 2.5-.6 3.8.6 1.3 1.9 2.2 3.3 2.2 13.7 0 24.8-5.3 31.6-9.8l.9-.6 1 .2c2.2.5 4.6.9 7.2 1.2l1.3.2.6 1.1c8.1 14.9 27.1 24.5 48.2 24.5 5.1 0 10.2-.6 15.2-1.7l1-.2.9.6c10 6.5 20.7 9.8 31.6 9.8 1.4 0 2.7-.9 3.3-2.2.6-1.5.3-3-.7-4.1zm-93.5-35.3c-4.5 0-9-.5-13.5-1.5l-4.2-1-3.6 2.3c-3.9 2.5-7.9 4.5-11.9 5.9l-6.3 2.2 3.3-5.8c.7-1.2 1.4-2.5 2-3.8l3.3-6.6-5.2-5.2c-3.9-3.9-8.6-10.3-8.6-18.6 0-17.4 20.4-32 44.7-32s44.7 14.7 44.7 32-20.5 32.1-44.7 32.1zm75.4 31.1c-4-1.4-8-3.4-11.9-5.9l-3.6-2.4-4.2 1c-18.4 4.2-38.6-.9-49.9-12.3l-3.6-3.7 5.1-.5c25.7-2.7 45-19.6 45-39.2 0-.6-.1-1.3-.1-1.9l-.3-3.4 3.3.3c18.6 4.2 31.6 16.7 31.6 30.4 0 8.4-4.7 14.8-8.6 18.6l-5.2 5.2 3.3 6.6c.7 1.3 1.3 2.6 2 3.8l3.3 5.8-6.2-2.4z"/></svg>