<svg xmlns="http://www.w3.org/2000/svg" viewBox="0 0 200 200"><path fill="#fff" d="M173.4 56.7c-5.5 2.4-11.3 4-17.3 4.8 6.2-3.7 11-9.6 13.2-16.6-5.8 3.5-12.2 5.9-19.1 7.3-5.5-5.9-13.4-9.5-22-9.5-16.7 0-30.1 13.5-30.1 30.1 0 2.4.2 4.7.7 6.9-25-1.2-47.2-13.2-62-31.5-2.6 4.5-4.1 9.7-4.1 15.2 0 10.4 5.4 19.7 13.4 25-4.8-.1-9.6-1.5-13.6-3.7v.3c0 14.6 10.4 26.8 24.1 29.6-2.4.7-5.1 1-7.9 1-1.9 0-3.9-.1-5.7-.5 3.9 11.9 15 20.7 28.1 21-10.2 8-23.2 12.8-37.3 12.8-2.5 0-4.8-.1-7.2-.4 13.3 8.6 29.1 13.5 46.2 13.5 55.4 0 85.7-45.9 85.7-85.6 0-1.3 0-2.6-.1-3.9 5.9-4.4 10.9-9.7 15-15.8z"/></svg>