<?xml version="1.0" encoding="utf-8"?>
<!-- Generator: Adobe Illustrator 24.1.2, SVG Export Plug-In . SVG Version: 6.00 Build 0)  -->
<svg version="1.1" id="Layer_1" xmlns="http://www.w3.org/2000/svg" xmlns:xlink="http://www.w3.org/1999/xlink" x="0px" y="0px"
	 viewBox="0 0 200 200" style="enable-background:new 0 0 200 200;" xml:space="preserve">
<style type="text/css">
	.st0{fill:#ff8343;}
	.st1{fill:#FFFFFF;}
</style>
<path class="st0" d="M161.09,144.45l-55.23-95.66c-2.61-4.51-9.12-4.51-11.73,0l-55.23,95.66c-2.61,4.51,0.65,10.16,5.86,10.16
	h110.46C160.44,154.6,163.7,148.96,161.09,144.45z M107.85,137.44c0,1.53-1.24,2.77-2.77,2.77h-7.96c-1.53,0-2.77-1.24-2.77-2.77
	v-7.96c0-1.53,1.24-2.77,2.77-2.77h7.96c1.53,0,2.77,1.24,2.77,2.77V137.44z M107.85,118.2c0,1.53-1.24,2.77-2.77,2.77h-7.96
	c-1.53,0-2.77-1.24-2.77-2.77V82.74c0-1.53,1.24-2.77,2.77-2.77h7.96c1.53,0,2.77,1.24,2.77,2.77V118.2z"/>
</svg>
