<?xml version="1.0" encoding="utf-8"?>
<!-- Generator: Adobe Illustrator 24.1.2, SVG Export Plug-In . SVG Version: 6.00 Build 0)  -->
<svg version="1.1" id="Layer_1" xmlns="http://www.w3.org/2000/svg" xmlns:xlink="http://www.w3.org/1999/xlink" x="0px" y="0px"
	 viewBox="0 0 200 200" style="enable-background:new 0 0 200 200;" xml:space="preserve">
<style type="text/css">
	.st0{fill:#A6549F;}
	.st1{fill:#FFFFFF;}
</style>
<path class="st0" d="M150.43,96.5c-0.02-0.06-0.03-0.12-0.06-0.18c-0.56-1.41-1.45-2.65-2.56-3.65l-21.63-21.75L99.29,43.35
	c-1.11-1.13-2.92-1.16-4.06-0.05l-10.07,9.83c-1.13,1.1-1.15,2.91-0.05,4.04l7.91,8.1c0.36,0.56,0.79,1.09,1.27,1.58l14.3,14.38
	l8.63,8.84h-4.87v-0.03H51.79c-1.58,0-2.87,1.28-2.87,2.87v14.07c0,1.58,1.28,2.86,2.86,2.86h60.58v-0.01h5.09l-32.83,32.83
	c-1.12,1.12-1.12,2.94,0,4.06l9.95,9.95c1.12,1.12,2.93,1.12,4.04,0l9.58-9.58c0.04-0.04,0.09-0.06,0.13-0.1l32.07-32.1l1.05-1.05v0
	l6.8-6.8c0.21-0.21,0.29-0.5,0.48-0.73c0.5-0.59,0.93-1.24,1.29-1.94c0.21-0.42,0.38-0.83,0.53-1.27c0.28-0.82,0.45-1.67,0.5-2.57
	c0.01-0.24,0.05-0.46,0.04-0.7C151.06,98.66,150.83,97.54,150.43,96.5z"/>
</svg>
