<?xml version="1.0" encoding="utf-8"?>
<!-- Generator: Adobe Illustrator 24.1.2, SVG Export Plug-In . SVG Version: 6.00 Build 0)  -->
<svg version="1.1" id="Layer_1" xmlns="http://www.w3.org/2000/svg" xmlns:xlink="http://www.w3.org/1999/xlink" x="0px" y="0px"
	 viewBox="0 0 200 200" style="enable-background:new 0 0 200 200;" xml:space="preserve">
<style type="text/css">
	.st0{fill:#f22a31;}
	.st1{fill:#FFFFFF;}
</style>
<path class="st0" d="M116.24,100l33.35-33.35c2.24-2.24,2.24-5.88,0-8.12l-8.12-8.12c-2.24-2.24-5.88-2.24-8.12,0L100,83.76
	L66.65,50.41c-2.24-2.24-5.88-2.24-8.12,0l-8.12,8.12c-2.24,2.24-2.24,5.88,0,8.12L83.76,100l-33.35,33.35
	c-2.24,2.24-2.24,5.88,0,8.12l8.12,8.12c2.24,2.24,5.88,2.24,8.12,0L100,116.24l33.35,33.35c2.24,2.24,5.88,2.24,8.12,0l8.12-8.12
	c2.24-2.24,2.24-5.88,0-8.12L116.24,100z"/>
</svg>
