<svg xmlns="http://www.w3.org/2000/svg" viewBox="0 0 200 200"><defs><style>.a{fill:#fff;}</style></defs><path class="a" d="M43.19,75.81V50.16a3.38,3.38,0,0,1,3.43-3.33H96.07a3.38,3.38,0,0,1,3.43,3.33v2.5h53.62a3.65,3.65,0,0,1,3.7,3.6V68.44A7.67,7.67,0,0,0,155.71,67a7.38,7.38,0,0,0-2.61-1.66,8.9,8.9,0,0,0-4.47-1.23l-46.37,0a9.55,9.55,0,0,0-9.28,8H50.61a8.26,8.26,0,0,0-3.73,1A6.31,6.31,0,0,0,43.19,75.81Zm113,.71a9.92,9.92,0,0,1,.83,3.32v65.4a7.81,7.81,0,0,1-7.66,7.93l-98.84-.11a7.53,7.53,0,0,1-5.46-2.36,8.07,8.07,0,0,1-2.2-5.58L43,87.33a8.17,8.17,0,0,1,.48-2.67l-.73,1a9.51,9.51,0,0,1,.43-1.47A8.27,8.27,0,0,1,46.94,80l-.58.76a7.4,7.4,0,0,1,4.22-1.32H93.76a8.69,8.69,0,0,1,8.47-8l46.37,0a8.26,8.26,0,0,1,6,2.54A9.25,9.25,0,0,1,156.23,76.52Zm-4.63,2.06a3.92,3.92,0,0,0-.72-1.08,3.22,3.22,0,0,0-2.28-1l-46.37,0a3.63,3.63,0,0,0-3.45,3.77v3.6l-3.57.64-44.63,0a2.61,2.61,0,0,0-2.35,1.7,2.91,2.91,0,0,0-.21,1.1L48,145.12a3,3,0,0,0,.8,2.08,2.54,2.54,0,0,0,1.8.8l98.83.1a2.75,2.75,0,0,0,2.6-2.87l0-64.93A5.88,5.88,0,0,0,151.6,78.58Zm-108.9,7Zm114.57-7.55c0,.1,0,.18,0,.27v-.12S157.27,78.12,157.27,78.07Z"/></svg>