<?xml version="1.0" encoding="utf-8"?>
<!-- Generator: Adobe Illustrator 24.1.2, SVG Export Plug-In . SVG Version: 6.00 Build 0)  -->
<svg version="1.1" id="Layer_1" xmlns="http://www.w3.org/2000/svg" xmlns:xlink="http://www.w3.org/1999/xlink" x="0px" y="0px"
	 viewBox="0 0 200 200" style="enable-background:new 0 0 200 200;" xml:space="preserve">
<style type="text/css">
	.st0{fill:#A6549F;}
	.st1{fill:#FFFFFF;}
</style>
<path class="st0" d="M156.11,100c0,30.99-25.12,56.11-56.11,56.11S43.89,130.99,43.89,100c0-30.97,25.12-56.11,56.11-56.11
	S156.11,69.03,156.11,100z M112.67,120.81c0-1.5-1.22-2.71-2.71-2.71h-2.71V95.48c0-1.5-1.22-2.71-2.71-2.71H90.05
	c-1.5,0-2.71,1.22-2.71,2.71v5.43c0,1.5,1.21,2.71,2.71,2.71h2.71v14.48h-2.71c-1.5,0-2.71,1.22-2.71,2.71v5.43
	c0,1.5,1.21,2.71,2.71,2.71h19.91c1.5,0,2.71-1.22,2.71-2.71V120.81z M90.5,78.28c0,5.25,4.25,9.5,9.5,9.5c5.25,0,9.5-4.25,9.5-9.5
	c0-5.25-4.25-9.5-9.5-9.5C94.75,68.78,90.5,73.03,90.5,78.28z"/>
</svg>
