<svg xmlns="http://www.w3.org/2000/svg" viewBox="0 0 200 200"><path fill="#fff" d="M173 72c-.3-7.8-1.6-13.2-3.4-17.8-1.9-4.9-4.7-9.3-8.5-13-3.7-3.7-8.1-6.6-13-8.5-4.7-1.8-10-3.1-17.8-3.4-7.9-.4-10.4-.5-30.3-.5s-22.4.1-30.3.4c-7.7.4-13.1 1.7-17.7 3.5-4.9 1.9-9.3 4.7-13 8.5-3.7 3.7-6.6 8.1-8.5 13-1.8 4.7-3.1 10-3.4 17.8-.4 7.9-.5 10.4-.5 30.3s.1 22.4.4 30.3c.3 7.8 1.6 13.2 3.4 17.8 1.9 4.9 4.8 9.3 8.5 13 3.7 3.7 8.1 6.6 13 8.5 4.7 1.8 10 3.1 17.8 3.4 7.8.3 10.3.4 30.3.4s22.4-.1 30.3-.4c7.8-.3 13.2-1.6 17.8-3.4 9.9-3.8 17.7-11.6 21.5-21.5 1.8-4.7 3.1-10 3.4-17.8.3-7.8.4-10.3.4-30.3s0-22.5-.4-30.3zm-13.2 59.9c-.3 7.2-1.5 11-2.5 13.6-2.5 6.4-7.5 11.5-13.9 13.9-2.6 1-6.5 2.2-13.6 2.5-7.7.3-10.1.4-29.7.4s-21.9-.1-29.7-.4c-7.2-.3-11-1.5-13.6-2.5-3.2-1.2-6.1-3-8.4-5.5-2.4-2.4-4.3-5.2-5.5-8.4-1-2.6-2.2-6.5-2.5-13.6-.3-7.7-.4-10.1-.4-29.7s.1-21.9.4-29.7c.3-7.2 1.5-11 2.5-13.6 1.2-3.2 3-6.1 5.5-8.4 2.4-2.4 5.2-4.3 8.4-5.5 2.6-1 6.5-2.2 13.6-2.5 7.7-.3 10.1-.4 29.7-.4s21.9.1 29.7.4c7.2.3 11 1.5 13.6 2.5 3.2 1.2 6.1 3 8.4 5.5 2.4 2.4 4.3 5.2 5.5 8.4 1 2.6 2.2 6.5 2.5 13.6.3 7.7.4 10.1.4 29.7s-.1 22-.4 29.7zM100 64.6c-20.8 0-37.7 16.9-37.7 37.7S79.2 140 100 140c20.8 0 37.7-16.9 37.7-37.7S120.8 64.6 100 64.6zm0 62.1c-13.5 0-24.5-11-24.5-24.5s11-24.5 24.5-24.5 24.5 11 24.5 24.5-11 24.5-24.5 24.5zm48-63.6c0 4.9-3.9 8.8-8.8 8.8s-8.8-3.9-8.8-8.8 3.9-8.8 8.8-8.8 8.8 3.9 8.8 8.8z"/></svg>