<svg xmlns="http://www.w3.org/2000/svg" id="Layer_1" x="0" y="0" version="1.1" viewBox="0 0 200 200" xml:space="preserve"><style></style><path fill="#a6549f" fill-rule="evenodd" d="M147.3 41.3L93.7 94.9c-3.1 3.1-3.2 8.3 0 11.4 3.1 3.1 8.3 3.2 11.4 0l53.6-53.6v17.9c0 4 3.3 7.3 7.3 7.3s7.3-3.3 7.3-7.3V33.9c0-2-.8-3.9-2.1-5.2-1.3-1.3-3.2-2.2-5.2-2.2h-36.7c-4 0-7.3 3.3-7.3 7.3s3.3 7.3 7.3 7.3h18v.2zm26.1 73.4v40.4c0 10.1-7.3 18.3-16.3 18.3H42.9c-9 0-16.3-8.2-16.3-18.3V44.9c0-10.1 7.3-18.3 16.3-18.3h42.4c4.1 0 7.3 3.3 7.3 7.3s-3.3 7.3-7.3 7.3H45.5c-2.3 0-4.2 2.2-4.2 4.9v107.6c0 2.7 1.9 4.9 4.2 4.9h109.1c2.3 0 4.2-2.2 4.2-4.9v-39.1c0-4.1 3.3-7.3 7.3-7.3s7.3 3.3 7.3 7.4z" clip-rule="evenodd"/></svg>