<svg xmlns="http://www.w3.org/2000/svg" viewBox="0 0 200 200"><path fill="#fff" d="M156.63 155.52a9.43 9.43 0 0 1-9.11 8.34H52.71c-5.45 0-9.49-4.38-9.61-10.43-.14-7.32 1.08-13.54 3.73-19 5.5-11.33 14.21-18.09 25.89-20.07a31.49 31.49 0 0 1 4.39-.33 2.72 2.72 0 0 1 2 .73 2.94 2.94 0 0 1 .81 2.15 2.79 2.79 0 0 1-.82 2.09 3.43 3.43 0 0 1-2.39.77 23.54 23.54 0 0 0-10.1 2.23c-10.22 4.8-16.28 13.26-18 25.15a38.22 38.22 0 0 0-.21 6.42v.61a4.11 4.11 0 0 0 4 4h94.53c2.72 0 4.58-2 4.63-5 .09-6.42-1-11.75-3.25-16.31-4.91-9.83-12.49-15.52-22.54-16.92a20.34 20.34 0 0 0-2.1-.14h-1a2.76 2.76 0 0 1-2.67-2.45 2.82 2.82 0 0 1 1.76-3.12 3.2 3.2 0 0 1 1.12-.15 31.15 31.15 0 0 1 19 6.51c7.42 5.56 12.19 13.32 14.18 23.06a35.83 35.83 0 0 1 .57 11.86zM67.51 84.1A40.48 40.48 0 0 1 74.75 48 31.15 31.15 0 0 1 89.2 37.78a29.13 29.13 0 0 1 26.9 4c6.37 4.44 10.78 10.53 13.49 18.63a39.4 39.4 0 0 1 1.9 15.12 38 38 0 0 1-9 22.94 30.6 30.6 0 0 1-15.85 10.32 32.32 32.32 0 0 1-8.14 1.08 29.15 29.15 0 0 1-17.66-6.07 35.58 35.58 0 0 1-13.33-19.7zm6.76 2.58a30.47 30.47 0 0 0 10.25 13.37 23.83 23.83 0 0 0 14.23 4.7 24.17 24.17 0 0 0 12.73-3.65 28.37 28.37 0 0 0 9.62-10 35.67 35.67 0 0 0 3.2-28.8 30.21 30.21 0 0 0-11-16.09A23.41 23.41 0 0 0 99 41.24a25.54 25.54 0 0 0-6.21.79 25.12 25.12 0 0 0-13.77 9.21 33.37 33.37 0 0 0-7.4 20.56 37.29 37.29 0 0 0 2.65 14.88z"/></svg>